<?xml version='1.0' encoding='UTF-8'?>
<!DOCTYPE svg PUBLIC "-//W3C//DTD SVG 1.0//EN" "http://www.w3.org/TR/2001/REC-SVG-20010904/DTD/svg10.dtd">
<svg viewBox="0 0 640 344" xmlns="http://www.w3.org/2000/svg" xmlns:inkspace="http://www.inkscape.org/namespaces/inkscape" xmlns:xlink="http://www.w3.org/1999/xlink">
  <defs id="defs_block">
    <filter height="1.504" id="filter_blur" inkspace:collect="always" width="1.1575" x="-0.07875" y="-0.252">
      <feGaussianBlur id="feGaussianBlur3780" inkspace:collect="always" stdDeviation="4.2" />
    </filter>
  </defs>
  <title>blockdiag</title>
  <desc>seqdiag {
  Client -&gt; Kroki;
  Kroki -&gt; Renderer;
  Renderer -&gt; Kroki;
  Kroki -&gt; Client;
}</desc>
  <rect fill="rgb(0,0,0)" height="196" style="filter:url(#filter_blur);opacity:0.7;fill-opacity:1" width="8" x="127" y="126" />
  <rect fill="rgb(0,0,0)" height="46" style="filter:url(#filter_blur);opacity:0.7;fill-opacity:1" width="8" x="131" y="276" />
  <rect fill="rgb(0,0,0)" height="196" style="filter:url(#filter_blur);opacity:0.7;fill-opacity:1" width="8" x="319" y="126" />
  <rect fill="rgb(0,0,0)" height="96" style="filter:url(#filter_blur);opacity:0.7;fill-opacity:1" width="8" x="323" y="226" />
  <rect fill="rgb(0,0,0)" height="146" style="filter:url(#filter_blur);opacity:0.7;fill-opacity:1" width="8" x="511" y="176" />
  <rect fill="rgb(0,0,0)" height="40" stroke="rgb(0,0,0)" style="filter:url(#filter_blur);opacity:0.7;fill-opacity:1" width="128" x="67" y="46" />
  <rect fill="rgb(0,0,0)" height="40" stroke="rgb(0,0,0)" style="filter:url(#filter_blur);opacity:0.7;fill-opacity:1" width="128" x="259" y="46" />
  <rect fill="rgb(0,0,0)" height="40" stroke="rgb(0,0,0)" style="filter:url(#filter_blur);opacity:0.7;fill-opacity:1" width="128" x="451" y="46" />
  <path d="M 128 80 L 128 332" fill="none" stroke="rgb(0,0,0)" stroke-dasharray="8 4" />
  <rect fill="moccasin" height="196" stroke="rgb(0,0,0)" width="8" x="124" y="120" />
  <rect fill="moccasin" height="46" stroke="rgb(0,0,0)" width="8" x="128" y="270" />
  <path d="M 320 80 L 320 332" fill="none" stroke="rgb(0,0,0)" stroke-dasharray="8 4" />
  <rect fill="moccasin" height="196" stroke="rgb(0,0,0)" width="8" x="316" y="120" />
  <rect fill="moccasin" height="96" stroke="rgb(0,0,0)" width="8" x="320" y="220" />
  <path d="M 512 80 L 512 332" fill="none" stroke="rgb(0,0,0)" stroke-dasharray="8 4" />
  <rect fill="moccasin" height="146" stroke="rgb(0,0,0)" width="8" x="508" y="170" />
  <rect fill="rgb(255,255,255)" height="40" stroke="rgb(0,0,0)" width="128" x="64" y="40" />
  <text fill="rgb(0,0,0)" font-family="sans-serif" font-size="11" font-style="normal" font-weight="normal" text-anchor="middle" textLength="34" x="128.0" y="65">Client</text>
  <rect fill="rgb(255,255,255)" height="40" stroke="rgb(0,0,0)" width="128" x="256" y="40" />
  <text fill="rgb(0,0,0)" font-family="sans-serif" font-size="11" font-style="normal" font-weight="normal" text-anchor="middle" textLength="31" x="320.5" y="65">Kroki</text>
  <rect fill="rgb(255,255,255)" height="40" stroke="rgb(0,0,0)" width="128" x="448" y="40" />
  <text fill="rgb(0,0,0)" font-family="sans-serif" font-size="11" font-style="normal" font-weight="normal" text-anchor="middle" textLength="53" x="512.5" y="65">Renderer</text>
  <path d="M 136 120 L 312 120" fill="none" stroke="rgb(0,0,0)" />
  <polygon fill="rgb(0,0,0)" points="304,116 312,120 304,124" stroke="rgb(0,0,0)" />
  <path d="M 328 170 L 504 170" fill="none" stroke="rgb(0,0,0)" />
  <polygon fill="rgb(0,0,0)" points="496,166 504,170 496,174" stroke="rgb(0,0,0)" />
  <path d="M 332 220 L 504 220" fill="none" stroke="rgb(0,0,0)" />
  <polygon fill="rgb(0,0,0)" points="340,216 332,220 340,224" stroke="rgb(0,0,0)" />
  <path d="M 140 270 L 312 270" fill="none" stroke="rgb(0,0,0)" />
  <polygon fill="rgb(0,0,0)" points="148,266 140,270 148,274" stroke="rgb(0,0,0)" />
</svg>
