<?xml version="1.0" encoding="UTF-8" standalone="no"?>
<!DOCTYPE svg PUBLIC "-//W3C//DTD SVG 1.1//EN"
 "http://www.w3.org/Graphics/SVG/1.1/DTD/svg11.dtd">
<!-- Generated by graphviz version 14.1.3 (20260303.0454)
 -->
<!-- Title: G Pages: 1 -->
<svg width="355pt" height="67pt"
 viewBox="0.00 0.00 355.00 67.00" xmlns="http://www.w3.org/2000/svg" xmlns:xlink="http://www.w3.org/1999/xlink"><rect width="100%" height="100%" fill="#ffffff" data-code-to-uml-background="true"/>
<g id="graph0" class="graph" transform="scale(1 1) rotate(0) translate(4 63)">
<title>G</title>
<polygon fill="white" stroke="none" points="-4,4 -4,-63 350.63,-63 350.63,4 -4,4"/>
<!-- Client -->
<g id="node1" class="node">
<title>Client</title>
<ellipse fill="none" stroke="black" cx="41.21" cy="-18" rx="41.21" ry="18"/>
<text xml:space="preserve" text-anchor="middle" x="41.21" y="-13.32" font-family="Times,serif" font-size="14.00">Client</text>
</g>
<!-- Kroki -->
<g id="node2" class="node">
<title>Kroki</title>
<ellipse fill="none" stroke="black" cx="156.48" cy="-41" rx="38.06" ry="18"/>
<text xml:space="preserve" text-anchor="middle" x="156.48" y="-36.33" font-family="Times,serif" font-size="14.00">Kroki</text>
</g>
<!-- Client&#45;&gt;Kroki -->
<g id="edge1" class="edge">
<title>Client&#45;&gt;Kroki</title>
<path fill="none" stroke="black" d="M79.3,-25.53C89.05,-27.51 99.68,-29.67 109.82,-31.73"/>
<polygon fill="black" stroke="black" points="109.02,-35.14 119.51,-33.7 110.41,-28.28 109.02,-35.14"/>
</g>
<!-- Renderer -->
<g id="node3" class="node">
<title>Renderer</title>
<ellipse fill="none" stroke="black" cx="288.58" cy="-18" rx="58.05" ry="18"/>
<text xml:space="preserve" text-anchor="middle" x="288.58" y="-13.32" font-family="Times,serif" font-size="14.00">Renderer</text>
</g>
<!-- Kroki&#45;&gt;Renderer -->
<g id="edge2" class="edge">
<title>Kroki&#45;&gt;Renderer</title>
<path fill="none" stroke="black" d="M192.69,-34.78C203.18,-32.92 215,-30.83 226.64,-28.77"/>
<polygon fill="black" stroke="black" points="226.97,-32.27 236.2,-27.08 225.75,-25.38 226.97,-32.27"/>
</g>
<!-- Renderer&#45;&gt;Client -->
<g id="edge3" class="edge">
<title>Renderer&#45;&gt;Client</title>
<path fill="none" stroke="black" d="M231.01,-15.18C218.97,-14.69 206.34,-14.25 194.53,-14 160.72,-13.27 152.24,-13.11 118.42,-14 110.32,-14.21 101.74,-14.55 93.36,-14.95"/>
<polygon fill="black" stroke="black" points="93.47,-11.44 83.66,-15.43 93.82,-18.43 93.47,-11.44"/>
</g>
</g>
</svg>
