<?xml version="1.0" encoding="UTF-8" standalone="no"?>
<!DOCTYPE svg PUBLIC "-//W3C//DTD SVG 1.1//EN"
 "http://www.w3.org/Graphics/SVG/1.1/DTD/svg11.dtd">
<!-- Generated by graphviz version 14.1.3 (20260303.0454)
 -->
<!-- Title: G Pages: 1 -->
<svg width="333pt" height="44pt"
 viewBox="0.00 0.00 333.00 44.00" xmlns="http://www.w3.org/2000/svg" xmlns:xlink="http://www.w3.org/1999/xlink">
<g id="graph0" class="graph" transform="scale(1 1) rotate(0) translate(4 40)">
<title>G</title>
<polygon fill="white" stroke="none" points="-4,4 -4,-40 328.53,-40 328.53,4 -4,4"/>
<!-- Source -->
<g id="node1" class="node">
<title>Source</title>
<ellipse fill="none" stroke="black" cx="45.95" cy="-18" rx="45.95" ry="18"/>
<text xml:space="preserve" text-anchor="middle" x="45.95" y="-13.32" font-family="Times,serif" font-size="14.00">Source</text>
</g>
<!-- Render -->
<g id="node2" class="node">
<title>Render</title>
<ellipse fill="none" stroke="black" cx="175.42" cy="-18" rx="47.53" ry="18"/>
<text xml:space="preserve" text-anchor="middle" x="175.42" y="-13.32" font-family="Times,serif" font-size="14.00">Render</text>
</g>
<!-- Source&#45;&gt;Render -->
<g id="edge1" class="edge">
<title>Source&#45;&gt;Render</title>
<path fill="none" stroke="black" d="M92.25,-18C100.03,-18 108.21,-18 116.28,-18"/>
<polygon fill="black" stroke="black" points="116.03,-21.5 126.03,-18 116.03,-14.5 116.03,-21.5"/>
</g>
<!-- SVG -->
<g id="node3" class="node">
<title>SVG</title>
<ellipse fill="none" stroke="black" cx="291.74" cy="-18" rx="32.79" ry="18"/>
<text xml:space="preserve" text-anchor="middle" x="291.74" y="-13.32" font-family="Times,serif" font-size="14.00">SVG</text>
</g>
<!-- Render&#45;&gt;SVG -->
<g id="edge2" class="edge">
<title>Render&#45;&gt;SVG</title>
<path fill="none" stroke="black" d="M223.25,-18C231.11,-18 239.24,-18 247.02,-18"/>
<polygon fill="black" stroke="black" points="246.96,-21.5 256.96,-18 246.96,-14.5 246.96,-21.5"/>
</g>
</g>
</svg>
