<?xml version="1.0" encoding="UTF-8" standalone="no"?>
<!DOCTYPE svg PUBLIC "-//W3C//DTD SVG 1.1//EN"
 "http://www.w3.org/Graphics/SVG/1.1/DTD/svg11.dtd">
<!-- Generated by graphviz version 14.1.3 (20260303.0454)
 -->
<!-- Pages: 1 -->
<svg width="250pt" height="127pt"
 viewBox="0.00 0.00 250.00 127.00" xmlns="http://www.w3.org/2000/svg" xmlns:xlink="http://www.w3.org/1999/xlink"><rect width="100%" height="100%" fill="#ffffff" data-code-to-uml-background="true"/>
<g id="graph0" class="graph" transform="scale(1 1) rotate(0) translate(4 123.25)">
<polygon fill="white" stroke="none" points="-4,4 -4,-123.25 246,-123.25 246,4 -4,4"/>
<!-- User -->
<g id="node1" class="node">
<title>User</title>
<polygon fill="none" stroke="black" points="8,-72.12 8,-101.62 59.25,-101.62 59.25,-72.12 8,-72.12"/>
<text xml:space="preserve" text-anchor="start" x="13" y="-82.42" font-family="Helvetica,sans-Serif" font-weight="bold" font-size="16.00">User</text>
<polygon fill="none" stroke="black" points="8,-44.88 8,-72.12 59.25,-72.12 59.25,-44.88 8,-44.88"/>
<text xml:space="preserve" text-anchor="start" x="13" y="-54.83" font-family="Helvetica,sans-Serif" text-decoration="underline" font-size="14.00">id</text>
<polygon fill="none" stroke="black" points="8,-17.62 8,-44.88 59.25,-44.88 59.25,-17.62 8,-17.62"/>
<text xml:space="preserve" text-anchor="start" x="13" y="-26.38" font-family="Helvetica,sans-Serif" font-size="14.00">name</text>
</g>
<!-- Diagram -->
<g id="node2" class="node">
<title>Diagram</title>
<polygon fill="none" stroke="black" points="148.25,-85.75 148.25,-115.25 234,-115.25 234,-85.75 148.25,-85.75"/>
<text xml:space="preserve" text-anchor="start" x="153.25" y="-96.05" font-family="Helvetica,sans-Serif" font-weight="bold" font-size="16.00">Diagram</text>
<polygon fill="none" stroke="black" points="148.25,-58.5 148.25,-85.75 234,-85.75 234,-58.5 148.25,-58.5"/>
<text xml:space="preserve" text-anchor="start" x="153.25" y="-68.45" font-family="Helvetica,sans-Serif" text-decoration="underline" font-size="14.00">id</text>
<polygon fill="none" stroke="black" points="148.25,-31.25 148.25,-58.5 234,-58.5 234,-31.25 148.25,-31.25"/>
<text xml:space="preserve" text-anchor="start" x="153.25" y="-40" font-family="Helvetica,sans-Serif" font-size="14.00">source</text>
<polygon fill="none" stroke="black" points="148.25,-4 148.25,-31.25 234,-31.25 234,-4 148.25,-4"/>
<text xml:space="preserve" text-anchor="start" x="153.25" y="-12.75" font-family="Helvetica,sans-Serif" font-size="14.00">user_id</text>
</g>
<!-- User&#45;&#45;Diagram -->
<g id="edge1" class="edge">
<title>User&#45;&#45;Diagram</title>
<path fill="none" stroke="#7f7f7f" stroke-dasharray="5,2" d="M67.22,-59.62C88.42,-59.62 116.47,-59.62 140.41,-59.62"/>
<text xml:space="preserve" text-anchor="start" x="110.41" y="-46.12" font-family="Times,serif" font-size="14.00">0..N</text>
<text xml:space="preserve" text-anchor="start" x="67.22" y="-46.12" font-family="Times,serif" font-size="14.00">1</text>
</g>
</g>
</svg>
