<?xml version="1.0" encoding="UTF-8" standalone="no"?>
<!DOCTYPE svg PUBLIC "-//W3C//DTD SVG 1.1//EN"
 "http://www.w3.org/Graphics/SVG/1.1/DTD/svg11.dtd">
<!-- Generated by graphviz version 2.47.0 (20210316.0004)
 -->
<!-- Title: dbml Pages: 1 -->
<svg width="792pt" height="353pt"
 viewBox="0.00 0.00 792.12 353.07" xmlns="http://www.w3.org/2000/svg" xmlns:xlink="http://www.w3.org/1999/xlink">
<g id="graph0" class="graph" transform="scale(1 1) rotate(0) translate(4 349.07)">
<title>dbml</title>
<!-- users -->
<g id="users" class="node">
<title>users</title>
<ellipse fill="none" stroke="black" stroke-width="0" cx="609.46" cy="-202.53" rx="174.81" ry="130.22"/>
<polygon fill="#1d71b8" stroke="transparent" points="488.46,-232.53 488.46,-292.53 731.46,-292.53 731.46,-232.53 488.46,-232.53"/>
<polygon fill="none" stroke="#29235c" points="488.46,-232.53 488.46,-292.53 731.46,-292.53 731.46,-232.53 488.46,-232.53"/>
<text text-anchor="start" x="508.6" y="-253.73" font-family="Helvetica,sans-Serif" font-weight="bold" font-size="32.00" fill="#ffffff"> &#160;&#160;&#160;&#160;&#160;&#160;users &#160;&#160;&#160;&#160;&#160;&#160;</text>
<polygon fill="#e7e2dd" stroke="transparent" points="488.46,-172.53 488.46,-232.53 731.46,-232.53 731.46,-172.53 488.46,-172.53"/>
<polygon fill="none" stroke="#29235c" points="488.46,-172.53 488.46,-232.53 731.46,-232.53 731.46,-172.53 488.46,-172.53"/>
<text text-anchor="start" x="499.46" y="-193.73" font-family="Helvetica,sans-Serif" font-weight="bold" font-size="32.00" fill="#29235c">id</text>
<text text-anchor="start" x="524.35" y="-193.73" font-family="Helvetica,sans-Serif" font-size="32.00" fill="#29235c"> &#160;&#160;&#160;</text>
<text text-anchor="start" x="622.66" y="-193.73" font-family="Helvetica,sans-Serif" font-style="italic" font-size="32.00" fill="#29235c">integer</text>
<polygon fill="#e7e2dd" stroke="transparent" points="488.46,-112.53 488.46,-172.53 731.46,-172.53 731.46,-112.53 488.46,-112.53"/>
<polygon fill="none" stroke="#29235c" points="488.46,-112.53 488.46,-172.53 731.46,-172.53 731.46,-112.53 488.46,-112.53"/>
<text text-anchor="start" x="499.17" y="-132.73" font-family="Helvetica,sans-Serif" font-size="32.00" fill="#29235c">name &#160;&#160;&#160;</text>
<text text-anchor="start" x="614.13" y="-133.73" font-family="Helvetica,sans-Serif" font-style="italic" font-size="32.00" fill="#29235c">varchar</text>
<polygon fill="none" stroke="#29235c" stroke-width="2" points="486.96,-111.53 486.96,-293.53 731.96,-293.53 731.96,-111.53 486.96,-111.53"/>
</g>
<!-- diagrams -->
<g id="diagrams" class="node">
<title>diagrams</title>
<ellipse fill="none" stroke="black" stroke-width="0" cx="199.4" cy="-172.53" rx="199.31" ry="172.57"/>
<polygon fill="#1d71b8" stroke="transparent" points="60.4,-232.53 60.4,-292.53 338.4,-292.53 338.4,-232.53 60.4,-232.53"/>
<polygon fill="none" stroke="#29235c" points="60.4,-232.53 60.4,-292.53 338.4,-292.53 338.4,-232.53 60.4,-232.53"/>
<text text-anchor="start" x="71.37" y="-253.73" font-family="Helvetica,sans-Serif" font-weight="bold" font-size="32.00" fill="#ffffff"> &#160;&#160;&#160;&#160;&#160;&#160;diagrams &#160;&#160;&#160;&#160;&#160;&#160;</text>
<polygon fill="#e7e2dd" stroke="transparent" points="60.4,-172.53 60.4,-232.53 338.4,-232.53 338.4,-172.53 60.4,-172.53"/>
<polygon fill="none" stroke="#29235c" points="60.4,-172.53 60.4,-232.53 338.4,-232.53 338.4,-172.53 60.4,-172.53"/>
<text text-anchor="start" x="71.4" y="-193.73" font-family="Helvetica,sans-Serif" font-weight="bold" font-size="32.00" fill="#29235c">id</text>
<text text-anchor="start" x="96.29" y="-193.73" font-family="Helvetica,sans-Serif" font-size="32.00" fill="#29235c"> &#160;&#160;&#160;</text>
<text text-anchor="start" x="229.6" y="-193.73" font-family="Helvetica,sans-Serif" font-style="italic" font-size="32.00" fill="#29235c">integer</text>
<polygon fill="#e7e2dd" stroke="transparent" points="60.4,-112.53 60.4,-172.53 338.4,-172.53 338.4,-112.53 60.4,-112.53"/>
<polygon fill="none" stroke="#29235c" points="60.4,-112.53 60.4,-172.53 338.4,-172.53 338.4,-112.53 60.4,-112.53"/>
<text text-anchor="start" x="71.4" y="-132.73" font-family="Helvetica,sans-Serif" font-size="32.00" fill="#29235c">user_id &#160;&#160;&#160;</text>
<text text-anchor="start" x="229.6" y="-133.73" font-family="Helvetica,sans-Serif" font-style="italic" font-size="32.00" fill="#29235c">integer</text>
<polygon fill="#e7e2dd" stroke="transparent" points="60.4,-52.53 60.4,-112.53 338.4,-112.53 338.4,-52.53 60.4,-52.53"/>
<polygon fill="none" stroke="#29235c" points="60.4,-52.53 60.4,-112.53 338.4,-112.53 338.4,-52.53 60.4,-52.53"/>
<text text-anchor="start" x="71.4" y="-72.73" font-family="Helvetica,sans-Serif" font-size="32.00" fill="#29235c">source &#160;&#160;&#160;</text>
<text text-anchor="start" x="275.83" y="-73.73" font-family="Helvetica,sans-Serif" font-style="italic" font-size="32.00" fill="#29235c">text</text>
<polygon fill="none" stroke="#29235c" stroke-width="2" points="59.4,-51.53 59.4,-293.53 339.4,-293.53 339.4,-51.53 59.4,-51.53"/>
</g>
<!-- diagrams&#45;&gt;users -->
<!-- diagrams&#45;&gt;users -->
<g id="edge2" class="edge">
<title>diagrams:e&#45;&gt;users:w</title>
<path fill="none" stroke="#29235c" stroke-width="3" d="M339.4,-142.53C406.8,-142.53 415.68,-196.6 477.13,-202.09"/>
<polygon fill="#29235c" stroke="#29235c" stroke-width="3" points="477.32,-205.6 487.46,-202.53 477.62,-198.6 477.32,-205.6"/>
<text text-anchor="middle" x="496.36" y="-202.53" font-family="Helvetica,sans-Serif" font-size="32.00" fill="#29235c">1</text>
<text text-anchor="middle" x="345.63" y="-113.73" font-family="Helvetica,sans-Serif" font-size="32.00" fill="#29235c">*</text>
</g>
</g>
</svg>

