<?xml version="1.0" encoding="UTF-8" standalone="no"?>
<!DOCTYPE svg PUBLIC "-//W3C//DTD SVG 1.1//EN"
 "http://www.w3.org/Graphics/SVG/1.1/DTD/svg11.dtd">
<!-- Generated by graphviz version 14.1.3 (20260303.0454)
 -->
<!-- Pages: 1 -->
<svg width="658pt" height="198pt"
 viewBox="0.00 0.00 658.00 198.00" xmlns="http://www.w3.org/2000/svg" xmlns:xlink="http://www.w3.org/1999/xlink"><rect width="100%" height="100%" fill="#ffffff" data-code-to-uml-background="true"/>
<g id="graph0" class="graph" transform="scale(1 1) rotate(0) translate(4 194)">
<polygon fill="#ffffff" stroke="none" points="-4,4 -4,-194 654,-194 654,4 -4,4"/>
<!-- X1 -->
<g id="node1" class="node">
<title>X1</title>
<polygon fill="#ffffff" stroke="black" points="88,-157.25 0,-157.25 0,-14.75 88,-14.75 88,-157.25"/>
<polygon fill="none" stroke="black" points="0,-133.5 0,-157.25 88,-157.25 88,-133.5 0,-133.5"/>
<text xml:space="preserve" text-anchor="start" x="35.75" y="-140.5" font-family="arial" font-size="14.00">X1</text>
<polygon fill="none" stroke="black" points="0,-109.75 0,-133.5 50,-133.5 50,-109.75 0,-109.75"/>
<text xml:space="preserve" text-anchor="start" x="4" y="-116.75" font-family="arial" font-size="14.00">USB&#45;C</text>
<polygon fill="none" stroke="black" points="50,-109.75 50,-133.5 88,-133.5 88,-109.75 50,-109.75"/>
<text xml:space="preserve" text-anchor="start" x="54" y="-116.75" font-family="arial" font-size="14.00">4&#45;pin</text>
<polygon fill="none" stroke="black" points="0,-86 0,-109.75 58.62,-109.75 58.62,-86 0,-86"/>
<text xml:space="preserve" text-anchor="start" x="10.94" y="-93" font-family="arial" font-size="14.00">VBUS</text>
<polygon fill="none" stroke="black" points="58.62,-86 58.62,-109.75 88,-109.75 88,-86 58.62,-86"/>
<text xml:space="preserve" text-anchor="start" x="69.56" y="-93" font-family="arial" font-size="14.00">1</text>
<polygon fill="none" stroke="black" points="0,-62.25 0,-86 58.62,-86 58.62,-62.25 0,-62.25"/>
<text xml:space="preserve" text-anchor="start" x="22.19" y="-69.25" font-family="arial" font-size="14.00">D&#45;</text>
<polygon fill="none" stroke="black" points="58.62,-62.25 58.62,-86 88,-86 88,-62.25 58.62,-62.25"/>
<text xml:space="preserve" text-anchor="start" x="69.56" y="-69.25" font-family="arial" font-size="14.00">2</text>
<polygon fill="none" stroke="black" points="0,-38.5 0,-62.25 58.62,-62.25 58.62,-38.5 0,-38.5"/>
<text xml:space="preserve" text-anchor="start" x="20.31" y="-45.5" font-family="arial" font-size="14.00">D+</text>
<polygon fill="none" stroke="black" points="58.62,-38.5 58.62,-62.25 88,-62.25 88,-38.5 58.62,-38.5"/>
<text xml:space="preserve" text-anchor="start" x="69.56" y="-45.5" font-family="arial" font-size="14.00">3</text>
<polygon fill="none" stroke="black" points="0,-14.75 0,-38.5 58.62,-38.5 58.62,-14.75 0,-14.75"/>
<text xml:space="preserve" text-anchor="start" x="13.94" y="-21.75" font-family="arial" font-size="14.00">GND</text>
<polygon fill="none" stroke="black" points="58.62,-14.75 58.62,-38.5 88,-38.5 88,-14.75 58.62,-14.75"/>
<text xml:space="preserve" text-anchor="start" x="69.56" y="-21.75" font-family="arial" font-size="14.00">4</text>
</g>
<!-- W1 -->
<g id="node3" class="node">
<title>W1</title>
<polygon fill="#ffffff" stroke="black" points="415.75,-190 232,-190 232,0 415.75,0 415.75,-190"/>
<polygon fill="none" stroke="black" points="232,-166.25 232,-190 415.75,-190 415.75,-166.25 232,-166.25"/>
<text xml:space="preserve" text-anchor="start" x="313.38" y="-173.25" font-family="arial" font-size="14.00">W1</text>
<polygon fill="none" stroke="black" points="232,-142.5 232,-166.25 415.75,-166.25 415.75,-142.5 232,-142.5"/>
<text xml:space="preserve" text-anchor="start" x="316.75" y="-149.5" font-family="arial" font-size="14.00">4x</text>
<text xml:space="preserve" text-anchor="start" x="266.25" y="-127.75" font-family="arial" font-size="14.00"> </text>
<text xml:space="preserve" text-anchor="start" x="234" y="-108" font-family="arial" font-size="14.00">X1:1:VBUS</text>
<text xml:space="preserve" text-anchor="start" x="306.25" y="-108" font-family="arial" font-size="14.00"> &#160;&#160;&#160;&#160;1 &#160;&#160;&#160;</text>
<text xml:space="preserve" text-anchor="start" x="358.62" y="-108" font-family="arial" font-size="14.00">X2:1:5V</text>
<polygon fill="#000000" stroke="none" points="232,-101 232,-103 415.75,-103 415.75,-101 232,-101"/>
<polygon fill="#ffffff" stroke="none" points="232,-99 232,-101 415.75,-101 415.75,-99 232,-99"/>
<polygon fill="#000000" stroke="none" points="232,-97 232,-99 415.75,-99 415.75,-97 232,-97"/>
<text xml:space="preserve" text-anchor="start" x="245.25" y="-82.25" font-family="arial" font-size="14.00">X1:2:D&#45;</text>
<text xml:space="preserve" text-anchor="start" x="306.25" y="-82.25" font-family="arial" font-size="14.00"> &#160;&#160;&#160;&#160;2 &#160;&#160;&#160;</text>
<text xml:space="preserve" text-anchor="start" x="359.75" y="-82.25" font-family="arial" font-size="14.00">X2:2:D&#45;</text>
<polygon fill="#000000" stroke="none" points="232,-75.25 232,-77.25 415.75,-77.25 415.75,-75.25 232,-75.25"/>
<polygon fill="#ffffff" stroke="none" points="232,-73.25 232,-75.25 415.75,-75.25 415.75,-73.25 232,-73.25"/>
<polygon fill="#000000" stroke="none" points="232,-71.25 232,-73.25 415.75,-73.25 415.75,-71.25 232,-71.25"/>
<text xml:space="preserve" text-anchor="start" x="243.38" y="-56.5" font-family="arial" font-size="14.00">X1:3:D+</text>
<text xml:space="preserve" text-anchor="start" x="306.25" y="-56.5" font-family="arial" font-size="14.00"> &#160;&#160;&#160;&#160;3 &#160;&#160;&#160;</text>
<text xml:space="preserve" text-anchor="start" x="357.88" y="-56.5" font-family="arial" font-size="14.00">X2:3:D+</text>
<polygon fill="#000000" stroke="none" points="232,-49.5 232,-51.5 415.75,-51.5 415.75,-49.5 232,-49.5"/>
<polygon fill="#ffffff" stroke="none" points="232,-47.5 232,-49.5 415.75,-49.5 415.75,-47.5 232,-47.5"/>
<polygon fill="#000000" stroke="none" points="232,-45.5 232,-47.5 415.75,-47.5 415.75,-45.5 232,-45.5"/>
<text xml:space="preserve" text-anchor="start" x="237" y="-30.75" font-family="arial" font-size="14.00">X1:4:GND</text>
<text xml:space="preserve" text-anchor="start" x="306.25" y="-30.75" font-family="arial" font-size="14.00"> &#160;&#160;&#160;&#160;4 &#160;&#160;&#160;</text>
<text xml:space="preserve" text-anchor="start" x="351.5" y="-30.75" font-family="arial" font-size="14.00">X2:4:GND</text>
<polygon fill="#000000" stroke="none" points="232,-23.75 232,-25.75 415.75,-25.75 415.75,-23.75 232,-23.75"/>
<polygon fill="#ffffff" stroke="none" points="232,-21.75 232,-23.75 415.75,-23.75 415.75,-21.75 232,-21.75"/>
<polygon fill="#000000" stroke="none" points="232,-19.75 232,-21.75 415.75,-21.75 415.75,-19.75 232,-19.75"/>
<text xml:space="preserve" text-anchor="start" x="266.25" y="-5" font-family="arial" font-size="14.00"> </text>
</g>
<!-- X1&#45;&#45;W1 -->
<g id="edge1" class="edge">
<title>X1:e&#45;&#45;W1:w</title>
<path fill="none" stroke="#000000" stroke-width="2" d="M88,-95.88C152.27,-95.89 168.26,-98.02 232,-98"/>
<path fill="none" stroke="#ffffff" stroke-width="2" d="M88,-97.88C152.01,-97.88 167.99,-100 232,-100"/>
<path fill="none" stroke="#000000" stroke-width="2" d="M88,-99.87C151.74,-99.86 167.73,-101.98 232,-102"/>
</g>
<!-- X1&#45;&#45;W1 -->
<g id="edge3" class="edge">
<title>X1:e&#45;&#45;W1:w</title>
<path fill="none" stroke="#000000" stroke-width="2" d="M88,-72.13C152.02,-72.13 168.02,-72.25 232,-72.25"/>
<path fill="none" stroke="#ffffff" stroke-width="2" d="M88,-74.12C152,-74.12 168,-74.25 232,-74.25"/>
<path fill="none" stroke="#000000" stroke-width="2" d="M88,-76.12C151.98,-76.12 167.98,-76.25 232,-76.25"/>
</g>
<!-- X1&#45;&#45;W1 -->
<g id="edge5" class="edge">
<title>X1:e&#45;&#45;W1:w</title>
<path fill="none" stroke="#000000" stroke-width="2" d="M88,-48.38C151.77,-48.39 167.76,-46.51 232,-46.5"/>
<path fill="none" stroke="#ffffff" stroke-width="2" d="M88,-50.38C152.01,-50.38 167.99,-48.5 232,-48.5"/>
<path fill="none" stroke="#000000" stroke-width="2" d="M88,-52.37C152.24,-52.36 168.23,-50.49 232,-50.5"/>
</g>
<!-- X1&#45;&#45;W1 -->
<g id="edge7" class="edge">
<title>X1:e&#45;&#45;W1:w</title>
<path fill="none" stroke="#000000" stroke-width="2" d="M88,-24.63C151.55,-24.68 167.5,-20.81 232,-20.75"/>
<path fill="none" stroke="#ffffff" stroke-width="2" d="M88,-26.62C152.02,-26.62 167.98,-22.75 232,-22.75"/>
<path fill="none" stroke="#000000" stroke-width="2" d="M88,-28.62C152.5,-28.57 168.45,-24.69 232,-24.75"/>
</g>
<!-- X2 -->
<g id="node2" class="node">
<title>X2</title>
<polygon fill="#ffffff" stroke="black" points="650,-157.25 559.75,-157.25 559.75,-14.75 650,-14.75 650,-157.25"/>
<polygon fill="none" stroke="black" points="559.75,-133.5 559.75,-157.25 650,-157.25 650,-133.5 559.75,-133.5"/>
<text xml:space="preserve" text-anchor="start" x="596.62" y="-140.5" font-family="arial" font-size="14.00">X2</text>
<polygon fill="none" stroke="black" points="559.75,-109.75 559.75,-133.5 612,-133.5 612,-109.75 559.75,-109.75"/>
<text xml:space="preserve" text-anchor="start" x="563.75" y="-116.75" font-family="arial" font-size="14.00">Header</text>
<polygon fill="none" stroke="black" points="612,-109.75 612,-133.5 650,-133.5 650,-109.75 612,-109.75"/>
<text xml:space="preserve" text-anchor="start" x="616" y="-116.75" font-family="arial" font-size="14.00">4&#45;pin</text>
<polygon fill="none" stroke="black" points="559.75,-86 559.75,-109.75 593.25,-109.75 593.25,-86 559.75,-86"/>
<text xml:space="preserve" text-anchor="start" x="572.75" y="-93" font-family="arial" font-size="14.00">1</text>
<polygon fill="none" stroke="black" points="593.25,-86 593.25,-109.75 650,-109.75 650,-86 593.25,-86"/>
<text xml:space="preserve" text-anchor="start" x="613.38" y="-93" font-family="arial" font-size="14.00">5V</text>
<polygon fill="none" stroke="black" points="559.75,-62.25 559.75,-86 593.25,-86 593.25,-62.25 559.75,-62.25"/>
<text xml:space="preserve" text-anchor="start" x="572.75" y="-69.25" font-family="arial" font-size="14.00">2</text>
<polygon fill="none" stroke="black" points="593.25,-62.25 593.25,-86 650,-86 650,-62.25 593.25,-62.25"/>
<text xml:space="preserve" text-anchor="start" x="614.5" y="-69.25" font-family="arial" font-size="14.00">D&#45;</text>
<polygon fill="none" stroke="black" points="559.75,-38.5 559.75,-62.25 593.25,-62.25 593.25,-38.5 559.75,-38.5"/>
<text xml:space="preserve" text-anchor="start" x="572.75" y="-45.5" font-family="arial" font-size="14.00">3</text>
<polygon fill="none" stroke="black" points="593.25,-38.5 593.25,-62.25 650,-62.25 650,-38.5 593.25,-38.5"/>
<text xml:space="preserve" text-anchor="start" x="612.62" y="-45.5" font-family="arial" font-size="14.00">D+</text>
<polygon fill="none" stroke="black" points="559.75,-14.75 559.75,-38.5 593.25,-38.5 593.25,-14.75 559.75,-14.75"/>
<text xml:space="preserve" text-anchor="start" x="572.75" y="-21.75" font-family="arial" font-size="14.00">4</text>
<polygon fill="none" stroke="black" points="593.25,-14.75 593.25,-38.5 650,-38.5 650,-14.75 593.25,-14.75"/>
<text xml:space="preserve" text-anchor="start" x="606.25" y="-21.75" font-family="arial" font-size="14.00">GND</text>
</g>
<!-- W1&#45;&#45;X2 -->
<g id="edge2" class="edge">
<title>W1:e&#45;&#45;X2:w</title>
<path fill="none" stroke="#000000" stroke-width="2" d="M415.75,-98C479.49,-98.02 495.48,-95.89 559.75,-95.88"/>
<path fill="none" stroke="#ffffff" stroke-width="2" d="M415.75,-100C479.76,-100 495.74,-97.88 559.75,-97.88"/>
<path fill="none" stroke="#000000" stroke-width="2" d="M415.75,-102C480.02,-101.98 496.01,-99.86 559.75,-99.87"/>
</g>
<!-- W1&#45;&#45;X2 -->
<g id="edge4" class="edge">
<title>W1:e&#45;&#45;X2:w</title>
<path fill="none" stroke="#000000" stroke-width="2" d="M415.75,-72.25C479.73,-72.25 495.73,-72.13 559.75,-72.13"/>
<path fill="none" stroke="#ffffff" stroke-width="2" d="M415.75,-74.25C479.75,-74.25 495.75,-74.12 559.75,-74.12"/>
<path fill="none" stroke="#000000" stroke-width="2" d="M415.75,-76.25C479.77,-76.25 495.77,-76.12 559.75,-76.12"/>
</g>
<!-- W1&#45;&#45;X2 -->
<g id="edge6" class="edge">
<title>W1:e&#45;&#45;X2:w</title>
<path fill="none" stroke="#000000" stroke-width="2" d="M415.75,-46.5C479.99,-46.51 495.98,-48.39 559.75,-48.38"/>
<path fill="none" stroke="#ffffff" stroke-width="2" d="M415.75,-48.5C479.76,-48.5 495.74,-50.38 559.75,-50.38"/>
<path fill="none" stroke="#000000" stroke-width="2" d="M415.75,-50.5C479.52,-50.49 495.51,-52.36 559.75,-52.37"/>
</g>
<!-- W1&#45;&#45;X2 -->
<g id="edge8" class="edge">
<title>W1:e&#45;&#45;X2:w</title>
<path fill="none" stroke="#000000" stroke-width="2" d="M415.75,-20.75C480.25,-20.81 496.2,-24.68 559.75,-24.63"/>
<path fill="none" stroke="#ffffff" stroke-width="2" d="M415.75,-22.75C479.77,-22.75 495.73,-26.62 559.75,-26.62"/>
<path fill="none" stroke="#000000" stroke-width="2" d="M415.75,-24.75C479.3,-24.69 495.25,-28.57 559.75,-28.62"/>
</g>
</g>
</svg>
