<?xml version="1.0" encoding="UTF-8" standalone="no"?>
<!DOCTYPE svg PUBLIC "-//W3C//DTD SVG 1.1//EN"
 "http://www.w3.org/Graphics/SVG/1.1/DTD/svg11.dtd">
<!-- Generated by graphviz version 14.1.3 (20260303.0454)
 -->
<!-- Title: Changes Pages: 1 -->
<svg width="581pt" height="348pt"
 viewBox="0.00 0.00 581.00 348.00" xmlns="http://www.w3.org/2000/svg" xmlns:xlink="http://www.w3.org/1999/xlink">
<g id="graph0" class="graph" transform="scale(1 1) rotate(0) translate(25.2 322.7)">
<title>Changes</title>
<polygon fill="#ffffff" stroke="none" points="-25.2,25.2 -25.2,-322.7 555.74,-322.7 555.74,25.2 -25.2,25.2"/>
<text xml:space="preserve" text-anchor="middle" x="265.27" y="-272.6" font-family="Arial" font-size="22.00" fill="#0f172a">Diagram changes · main → test</text>
<g id="clust1" class="cluster">
<title>cluster_legend</title>
<path fill="#ffffff" stroke="#cbd5e1" stroke-dasharray="5,2" d="M54.39,-8C54.39,-8 510.54,-8 510.54,-8 516.54,-8 522.54,-14 522.54,-20 522.54,-20 522.54,-82 522.54,-82 522.54,-88 516.54,-94 510.54,-94 510.54,-94 54.39,-94 54.39,-94 48.39,-94 42.39,-88 42.39,-82 42.39,-82 42.39,-20 42.39,-20 42.39,-14 48.39,-8 54.39,-8"/>
<text xml:space="preserve" text-anchor="middle" x="282.46" y="-69.1" font-family="Arial" font-size="22.00" fill="#0f172a">Legend</text>
</g>
<g id="clust2" class="cluster">
<title>cluster_0</title>
<path fill="#f8fafc" stroke="#cbd5e1" d="M12,-102C12,-102 376.75,-102 376.75,-102 382.75,-102 388.75,-108 388.75,-114 388.75,-114 388.75,-244 388.75,-244 388.75,-250 382.75,-256 376.75,-256 376.75,-256 12,-256 12,-256 6,-256 0,-250 0,-244 0,-244 0,-114 0,-114 0,-108 6,-102 12,-102"/>
<text xml:space="preserve" text-anchor="middle" x="194.38" y="-231.1" font-family="Arial" font-size="22.00" fill="#0f172a">all&#45;diagrams.md · PlantUML · plantuml</text>
</g>
<!-- legend_added -->
<g id="node1" class="node">
<title>legend_added</title>
<path fill="#dcfce7" stroke="#16a34a" stroke-width="2" d="M96.68,-52C96.68,-52 62.39,-52 62.39,-52 56.39,-52 50.39,-46 50.39,-40 50.39,-40 50.39,-28 50.39,-28 50.39,-22 56.39,-16 62.39,-16 62.39,-16 96.68,-16 96.68,-16 102.68,-16 108.68,-22 108.68,-28 108.68,-28 108.68,-40 108.68,-40 108.68,-46 102.68,-52 96.68,-52"/>
<text xml:space="preserve" text-anchor="middle" x="79.53" y="-29.73" font-family="Arial" font-size="12.00" fill="#14532d">Added</text>
</g>
<!-- legend_modified -->
<g id="node2" class="node">
<title>legend_modified</title>
<path fill="#fef3c7" stroke="#d97706" stroke-width="2" d="M284.59,-52C284.59,-52 239.8,-52 239.8,-52 233.8,-52 227.8,-46 227.8,-40 227.8,-40 227.8,-28 227.8,-28 227.8,-22 233.8,-16 239.8,-16 239.8,-16 284.59,-16 284.59,-16 290.59,-16 296.59,-22 296.59,-28 296.59,-28 296.59,-40 296.59,-40 296.59,-46 290.59,-52 284.59,-52"/>
<text xml:space="preserve" text-anchor="middle" x="262.2" y="-29.73" font-family="Arial" font-size="12.00" fill="#78350f">Modified</text>
</g>
<!-- legend_added&#45;&gt;legend_modified -->
<!-- legend_removed -->
<g id="node3" class="node">
<title>legend_removed</title>
<path fill="#fee2e2" stroke="#dc2626" stroke-width="2" d="M502.54,-52C502.54,-52 451.75,-52 451.75,-52 445.75,-52 439.75,-46 439.75,-40 439.75,-40 439.75,-28 439.75,-28 439.75,-22 445.75,-16 451.75,-16 451.75,-16 502.54,-16 502.54,-16 508.54,-16 514.54,-22 514.54,-28 514.54,-28 514.54,-40 514.54,-40 514.54,-46 508.54,-52 502.54,-52"/>
<text xml:space="preserve" text-anchor="middle" x="477.14" y="-29.73" font-family="Arial" font-size="12.00" fill="#7f1d1d">Removed</text>
</g>
<!-- legend_modified&#45;&gt;legend_removed -->
<!-- f0_Bob -->
<g id="node4" class="node">
<title>f0_Bob</title>
<g id="a_node4"><a xlink:title="unchanged: Bob">
<path fill="#f8fafc" stroke="#94a3b8" stroke-width="2" d="M94.53,-187C94.53,-187 64.53,-187 64.53,-187 58.53,-187 52.53,-181 52.53,-175 52.53,-175 52.53,-163 52.53,-163 52.53,-157 58.53,-151 64.53,-151 64.53,-151 94.53,-151 94.53,-151 100.53,-151 106.53,-157 106.53,-163 106.53,-163 106.53,-175 106.53,-175 106.53,-181 100.53,-187 94.53,-187"/>
<text xml:space="preserve" text-anchor="middle" x="79.53" y="-164.72" font-family="Arial" font-size="12.00" fill="#334155">Bob</text>
</a>
</g>
</g>
<!-- f0_Alice -->
<g id="node5" class="node">
<title>f0_Alice</title>
<g id="a_node5"><a xlink:title="unchanged: Alice">
<path fill="#f8fafc" stroke="#94a3b8" stroke-width="2" d="M277.2,-146C277.2,-146 247.2,-146 247.2,-146 241.2,-146 235.2,-140 235.2,-134 235.2,-134 235.2,-122 235.2,-122 235.2,-116 241.2,-110 247.2,-110 247.2,-110 277.2,-110 277.2,-110 283.2,-110 289.2,-116 289.2,-122 289.2,-122 289.2,-134 289.2,-134 289.2,-140 283.2,-146 277.2,-146"/>
<text xml:space="preserve" text-anchor="middle" x="262.2" y="-123.72" font-family="Arial" font-size="12.00" fill="#334155">Alice</text>
</a>
</g>
</g>
<!-- f0_Bob&#45;&gt;f0_Alice -->
<g id="edge3" class="edge">
<title>f0_Bob&#45;&gt;f0_Alice</title>
<path fill="none" stroke="#dc2626" stroke-width="2" stroke-dasharray="5,2" d="M107.19,-162.95C138.15,-155.93 189.4,-144.29 224.2,-136.4"/>
<polygon fill="#dc2626" stroke="#dc2626" stroke-width="2" points="224.75,-138.96 231.48,-134.74 223.58,-133.84 224.75,-138.96"/>
<text xml:space="preserve" text-anchor="middle" x="148.93" y="-158.24" font-family="Arial" font-size="10.00" fill="#7f1d1d">Hello</text>
</g>
<!-- f0_Ahahahahaahahhahah -->
<g id="node6" class="node">
<title>f0_Ahahahahaahahhahah</title>
<g id="a_node6"><a xlink:title="added: Ahahahahaahahhahah">
<path fill="#dcfce7" stroke="#16a34a" stroke-width="2" d="M323.22,-214C323.22,-214 201.18,-214 201.18,-214 195.18,-214 189.18,-208 189.18,-202 189.18,-202 189.18,-190 189.18,-190 189.18,-184 195.18,-178 201.18,-178 201.18,-178 323.22,-178 323.22,-178 329.22,-178 335.22,-184 335.22,-190 335.22,-190 335.22,-202 335.22,-202 335.22,-208 329.22,-214 323.22,-214"/>
<text xml:space="preserve" text-anchor="middle" x="262.2" y="-191.72" font-family="Arial" font-size="12.00" fill="#14532d">Ahahahahaahahhahah</text>
</a>
</g>
</g>
<!-- f0_Bob&#45;&gt;f0_Ahahahahaahahhahah -->
<g id="edge4" class="edge">
<title>f0_Bob&#45;&gt;f0_Ahahahahaahahhahah</title>
<path fill="none" stroke="#16a34a" stroke-width="2" d="M107.19,-172.98C126.08,-175.81 152.53,-179.76 178.19,-183.59"/>
<polygon fill="#16a34a" stroke="#16a34a" stroke-width="2" points="177.54,-186.15 185.35,-184.66 178.32,-180.96 177.54,-186.15"/>
<text xml:space="preserve" text-anchor="middle" x="148.93" y="-183.38" font-family="Arial" font-size="10.00" fill="#14532d">Hello</text>
</g>
</g>
</svg>
